<mxfile host="app.diagrams.net" modified="2022-07-30T18:47:08.201Z" agent="5.0 (Windows NT 10.0; Win64; x64) AppleWebKit/537.36 (KHTML, like Gecko) Chrome/103.0.0.0 Safari/537.36" etag="ju9jEbbuGc7SY9p0MraA" version="20.2.1" type="github">
  <diagram id="_v0U6XHrunSkltYkED8f" name="Page-1">
    <mxGraphModel dx="2170" dy="1145" grid="1" gridSize="10" guides="1" tooltips="1" connect="1" arrows="1" fold="1" page="1" pageScale="1" pageWidth="850" pageHeight="1100" math="0" shadow="0">
      <root>
        <mxCell id="0" />
        <mxCell id="1" parent="0" />
        <mxCell id="Sih1Pf5mhUMgSErxuZL1-40" value="" style="rounded=0;whiteSpace=wrap;html=1;" parent="1" vertex="1">
          <mxGeometry x="30" y="120" width="980" height="490" as="geometry" />
        </mxCell>
        <mxCell id="Sih1Pf5mhUMgSErxuZL1-1" value="Existing Software System&amp;nbsp;&lt;br&gt;Martial Arts Academy" style="rounded=0;whiteSpace=wrap;html=1;" parent="1" vertex="1">
          <mxGeometry x="380" y="140" width="120" height="60" as="geometry" />
        </mxCell>
        <mxCell id="Sih1Pf5mhUMgSErxuZL1-2" value="Initialize and conceptualize" style="rounded=0;whiteSpace=wrap;html=1;" parent="1" vertex="1">
          <mxGeometry x="90" y="250" width="120" height="50" as="geometry" />
        </mxCell>
        <mxCell id="Sih1Pf5mhUMgSErxuZL1-4" value="Business Case" style="rounded=0;whiteSpace=wrap;html=1;" parent="1" vertex="1">
          <mxGeometry x="90" y="300" width="120" height="30" as="geometry" />
        </mxCell>
        <mxCell id="Sih1Pf5mhUMgSErxuZL1-6" value="Business charter and plan" style="rounded=0;whiteSpace=wrap;html=1;" parent="1" vertex="1">
          <mxGeometry x="240" y="250" width="120" height="50" as="geometry" />
        </mxCell>
        <mxCell id="Sih1Pf5mhUMgSErxuZL1-7" value="Project charter and project plan" style="rounded=0;whiteSpace=wrap;html=1;" parent="1" vertex="1">
          <mxGeometry x="240" y="300" width="120" height="30" as="geometry" />
        </mxCell>
        <mxCell id="Sih1Pf5mhUMgSErxuZL1-8" value="Execute and control" style="rounded=0;whiteSpace=wrap;html=1;" parent="1" vertex="1">
          <mxGeometry x="390" y="250" width="120" height="80" as="geometry" />
        </mxCell>
        <mxCell id="Sih1Pf5mhUMgSErxuZL1-10" value="Close Project" style="rounded=0;whiteSpace=wrap;html=1;" parent="1" vertex="1">
          <mxGeometry x="550" y="250" width="120" height="50" as="geometry" />
        </mxCell>
        <mxCell id="Sih1Pf5mhUMgSErxuZL1-11" value="Final project report formal acceptance" style="rounded=0;whiteSpace=wrap;html=1;" parent="1" vertex="1">
          <mxGeometry x="550" y="300" width="120" height="30" as="geometry" />
        </mxCell>
        <mxCell id="Sih1Pf5mhUMgSErxuZL1-12" value="Evaluate project success" style="rounded=0;whiteSpace=wrap;html=1;" parent="1" vertex="1">
          <mxGeometry x="710" y="250" width="120" height="50" as="geometry" />
        </mxCell>
        <mxCell id="Sih1Pf5mhUMgSErxuZL1-13" value="Project evaluation" style="rounded=0;whiteSpace=wrap;html=1;" parent="1" vertex="1">
          <mxGeometry x="710" y="300" width="120" height="30" as="geometry" />
        </mxCell>
        <mxCell id="Sih1Pf5mhUMgSErxuZL1-14" value="Analysis" style="rounded=0;whiteSpace=wrap;html=1;" parent="1" vertex="1">
          <mxGeometry x="60" y="390" width="150" height="50" as="geometry" />
        </mxCell>
        <mxCell id="Sih1Pf5mhUMgSErxuZL1-15" value="SRS document,&lt;br&gt;&amp;nbsp;feasibility report,&lt;br&gt;Throwaway Prototype" style="rounded=0;whiteSpace=wrap;html=1;" parent="1" vertex="1">
          <mxGeometry x="60" y="440" width="150" height="60" as="geometry" />
        </mxCell>
        <mxCell id="Sih1Pf5mhUMgSErxuZL1-16" value="Design" style="rounded=0;whiteSpace=wrap;html=1;" parent="1" vertex="1">
          <mxGeometry x="240" y="390" width="120" height="50" as="geometry" />
        </mxCell>
        <mxCell id="Sih1Pf5mhUMgSErxuZL1-17" value="Design specification document&lt;br&gt;Technical design document" style="rounded=0;whiteSpace=wrap;html=1;" parent="1" vertex="1">
          <mxGeometry x="240" y="440" width="120" height="60" as="geometry" />
        </mxCell>
        <mxCell id="Sih1Pf5mhUMgSErxuZL1-18" value="Build" style="rounded=0;whiteSpace=wrap;html=1;" parent="1" vertex="1">
          <mxGeometry x="390" y="390" width="120" height="50" as="geometry" />
        </mxCell>
        <mxCell id="Sih1Pf5mhUMgSErxuZL1-19" value="Testing" style="rounded=0;whiteSpace=wrap;html=1;" parent="1" vertex="1">
          <mxGeometry x="550" y="390" width="120" height="50" as="geometry" />
        </mxCell>
        <mxCell id="Sih1Pf5mhUMgSErxuZL1-20" value="Test Plan and test reports" style="rounded=0;whiteSpace=wrap;html=1;" parent="1" vertex="1">
          <mxGeometry x="550" y="440" width="120" height="60" as="geometry" />
        </mxCell>
        <mxCell id="Sih1Pf5mhUMgSErxuZL1-21" value="Implementation" style="rounded=0;whiteSpace=wrap;html=1;" parent="1" vertex="1">
          <mxGeometry x="710" y="390" width="120" height="50" as="geometry" />
        </mxCell>
        <mxCell id="Sih1Pf5mhUMgSErxuZL1-22" value="Training, Documentation&amp;nbsp;" style="rounded=0;whiteSpace=wrap;html=1;" parent="1" vertex="1">
          <mxGeometry x="710" y="440" width="120" height="60" as="geometry" />
        </mxCell>
        <mxCell id="Sih1Pf5mhUMgSErxuZL1-23" value="Computer Software System" style="rounded=0;whiteSpace=wrap;html=1;" parent="1" vertex="1">
          <mxGeometry x="390" y="440" width="120" height="60" as="geometry" />
        </mxCell>
        <mxCell id="Sih1Pf5mhUMgSErxuZL1-24" value="" style="endArrow=none;html=1;rounded=0;" parent="1" source="Sih1Pf5mhUMgSErxuZL1-1" edge="1">
          <mxGeometry width="50" height="50" relative="1" as="geometry">
            <mxPoint x="440" y="250" as="sourcePoint" />
            <mxPoint x="440" y="250" as="targetPoint" />
          </mxGeometry>
        </mxCell>
        <mxCell id="Sih1Pf5mhUMgSErxuZL1-26" value="" style="endArrow=none;html=1;rounded=0;" parent="1" edge="1">
          <mxGeometry width="50" height="50" relative="1" as="geometry">
            <mxPoint x="140" y="220" as="sourcePoint" />
            <mxPoint x="770" y="220" as="targetPoint" />
          </mxGeometry>
        </mxCell>
        <mxCell id="Sih1Pf5mhUMgSErxuZL1-28" value="" style="endArrow=none;html=1;rounded=0;" parent="1" edge="1">
          <mxGeometry width="50" height="50" relative="1" as="geometry">
            <mxPoint x="140" y="250" as="sourcePoint" />
            <mxPoint x="140" y="220" as="targetPoint" />
          </mxGeometry>
        </mxCell>
        <mxCell id="Sih1Pf5mhUMgSErxuZL1-29" value="" style="endArrow=none;html=1;rounded=0;" parent="1" edge="1">
          <mxGeometry width="50" height="50" relative="1" as="geometry">
            <mxPoint x="289" y="251" as="sourcePoint" />
            <mxPoint x="289" y="221" as="targetPoint" />
          </mxGeometry>
        </mxCell>
        <mxCell id="Sih1Pf5mhUMgSErxuZL1-30" value="" style="endArrow=none;html=1;rounded=0;" parent="1" edge="1">
          <mxGeometry width="50" height="50" relative="1" as="geometry">
            <mxPoint x="769" y="249" as="sourcePoint" />
            <mxPoint x="769" y="219" as="targetPoint" />
          </mxGeometry>
        </mxCell>
        <mxCell id="Sih1Pf5mhUMgSErxuZL1-31" value="" style="endArrow=none;html=1;rounded=0;" parent="1" edge="1">
          <mxGeometry width="50" height="50" relative="1" as="geometry">
            <mxPoint x="603" y="249" as="sourcePoint" />
            <mxPoint x="603" y="219" as="targetPoint" />
          </mxGeometry>
        </mxCell>
        <mxCell id="Sih1Pf5mhUMgSErxuZL1-32" value="" style="endArrow=none;html=1;rounded=0;" parent="1" edge="1">
          <mxGeometry width="50" height="50" relative="1" as="geometry">
            <mxPoint x="120" y="360" as="sourcePoint" />
            <mxPoint x="920" y="360" as="targetPoint" />
          </mxGeometry>
        </mxCell>
        <mxCell id="Sih1Pf5mhUMgSErxuZL1-33" value="" style="endArrow=none;html=1;rounded=0;" parent="1" edge="1">
          <mxGeometry width="50" height="50" relative="1" as="geometry">
            <mxPoint x="120" y="390" as="sourcePoint" />
            <mxPoint x="120" y="360" as="targetPoint" />
          </mxGeometry>
        </mxCell>
        <mxCell id="Sih1Pf5mhUMgSErxuZL1-34" value="" style="endArrow=none;html=1;rounded=0;" parent="1" edge="1">
          <mxGeometry width="50" height="50" relative="1" as="geometry">
            <mxPoint x="438" y="360.0000000000001" as="sourcePoint" />
            <mxPoint x="438" y="330.0000000000001" as="targetPoint" />
          </mxGeometry>
        </mxCell>
        <mxCell id="Sih1Pf5mhUMgSErxuZL1-35" value="" style="endArrow=none;html=1;rounded=0;" parent="1" edge="1">
          <mxGeometry width="50" height="50" relative="1" as="geometry">
            <mxPoint x="754" y="391.0000000000001" as="sourcePoint" />
            <mxPoint x="754" y="361.0000000000001" as="targetPoint" />
          </mxGeometry>
        </mxCell>
        <mxCell id="Sih1Pf5mhUMgSErxuZL1-36" value="" style="endArrow=none;html=1;rounded=0;" parent="1" edge="1">
          <mxGeometry width="50" height="50" relative="1" as="geometry">
            <mxPoint x="608" y="391.0000000000001" as="sourcePoint" />
            <mxPoint x="608" y="361.0000000000001" as="targetPoint" />
          </mxGeometry>
        </mxCell>
        <mxCell id="Sih1Pf5mhUMgSErxuZL1-37" value="" style="endArrow=none;html=1;rounded=0;" parent="1" edge="1">
          <mxGeometry width="50" height="50" relative="1" as="geometry">
            <mxPoint x="293" y="391.0000000000001" as="sourcePoint" />
            <mxPoint x="293" y="361.0000000000001" as="targetPoint" />
          </mxGeometry>
        </mxCell>
        <mxCell id="Sih1Pf5mhUMgSErxuZL1-38" value="" style="endArrow=none;html=1;rounded=0;" parent="1" edge="1">
          <mxGeometry width="50" height="50" relative="1" as="geometry">
            <mxPoint x="438" y="390.0000000000001" as="sourcePoint" />
            <mxPoint x="438" y="360.0000000000001" as="targetPoint" />
          </mxGeometry>
        </mxCell>
        <mxCell id="Sih1Pf5mhUMgSErxuZL1-39" value="Deliverable charter tructure" style="text;html=1;strokeColor=none;fillColor=none;align=center;verticalAlign=middle;whiteSpace=wrap;rounded=0;" parent="1" vertex="1">
          <mxGeometry x="360" y="560" width="190" height="30" as="geometry" />
        </mxCell>
        <mxCell id="mArkjWxA3VDJdQjTRHFx-1" value="Maintenance" style="rounded=0;whiteSpace=wrap;html=1;" parent="1" vertex="1">
          <mxGeometry x="870" y="390" width="120" height="50" as="geometry" />
        </mxCell>
        <mxCell id="mArkjWxA3VDJdQjTRHFx-2" value="Software upgrades documentation" style="rounded=0;whiteSpace=wrap;html=1;" parent="1" vertex="1">
          <mxGeometry x="870" y="440" width="120" height="60" as="geometry" />
        </mxCell>
        <mxCell id="mArkjWxA3VDJdQjTRHFx-5" value="" style="endArrow=none;html=1;rounded=0;" parent="1" edge="1">
          <mxGeometry width="50" height="50" relative="1" as="geometry">
            <mxPoint x="920" y="390" as="sourcePoint" />
            <mxPoint x="920" y="360" as="targetPoint" />
          </mxGeometry>
        </mxCell>
      </root>
    </mxGraphModel>
  </diagram>
</mxfile>
